<?xml version="1.0" encoding="utf-8"?>
<!-- Generated by IcoMoon.io -->
<!DOCTYPE svg PUBLIC "-//W3C//DTD SVG 1.1//EN" "http://www.w3.org/Graphics/SVG/1.1/DTD/svg11.dtd">
<svg version="1.1" xmlns="http://www.w3.org/2000/svg" xmlns:xlink="http://www.w3.org/1999/xlink" width="640" height="640" viewBox="0 0 640 640"><g id="icomoon-ignore">
</g>
<path d="M247.2 68.672c-32.512 24.192-41.248 62.496-39.648 82.88 2.048 24.928 7.104 57.376 7.104 57.376s-10.016 5.44-10.016 27.328c3.488 54.944 21.856 31.232 25.632 55.328 9.088 58.048 29.856 47.712 29.856 79.392 0 52.768-21.76 77.44-89.696 106.688-68.16 29.376-138.432 66.336-138.432 130.336v32h576v-32c0-64-70.304-100.96-138.496-130.304-67.936-29.248-89.632-53.888-89.632-106.688 0-31.68 20.704-21.344 29.824-79.392 3.808-24.096 22.144-0.384 25.696-55.328 0-21.888-10.048-27.328-10.048-27.328s5.056-32.448 7.072-57.376c2.080-26.144-12.736-81.952-73.6-99.072-10.656-10.88-17.856-28.192 14.912-45.568-71.68-3.36-88.352 34.144-126.528 61.728z"></path>
</svg>
